<svg width="521" height="66" viewBox="0 0 521 66" fill="none" xmlns="http://www.w3.org/2000/svg">
  <g clip-path="url(#clip0)"><mask id="mask0" style="mask-type:luminance" maskUnits="userSpaceOnUse" x="0" y="0" width="521" height="66"><path d="M521 0H0V66H521V0Z" fill="white"/></mask><g mask="url(#mask0)">
  <path d="M149.199 64.9537V0H160.428L184.528 33.0436H179.173L202.755 0H213.984V64.9537H202.149V13.5138L206.728 14.6473L182.283 47.5165H180.9L157.06 14.6473L160.947 13.5138V64.9537H149.199Z" fill="#0A0A0A"/>
  <path d="M221.031 64.9537V17.5245H232.346V64.9537H221.031ZM221.031 12.2061V0H232.346V12.2061H221.031Z" fill="#0A0A0A"/>
  <path d="M238.475 64.9537V17.5245H249.1V26.8534L248.236 25.1968C249.33 22.3487 251.115 20.1981 253.591 18.745C256.125 17.2338 259.062 16.4782 262.402 16.4782C265.858 16.4782 268.909 17.2338 271.559 18.745C274.264 20.2563 276.367 22.3779 277.864 25.1096C279.361 27.7834 280.11 30.893 280.11 34.4386V64.9537H268.795V37.1413C268.795 35.0489 268.39 33.2471 267.585 31.7358C266.779 30.2245 265.656 29.062 264.216 28.2484C262.834 27.3764 261.192 26.9406 259.292 26.9406C257.449 26.9406 255.808 27.3764 254.368 28.2484C252.928 29.062 251.805 30.2245 251 31.7358C250.194 33.2471 249.79 35.0489 249.79 37.1413V64.9537H238.475Z" fill="#0A0A0A"/>
  <path d="M307.646 66C302.808 66 298.575 64.8957 294.948 62.6869C291.319 60.4782 288.498 57.4848 286.483 53.7067C284.467 49.9286 283.458 45.7437 283.458 41.1519C283.458 36.3857 284.467 32.1718 286.483 28.5099C288.555 24.79 291.348 21.8547 294.861 19.7041C298.432 17.5535 302.405 16.4782 306.782 16.4782C310.467 16.4782 313.691 17.0885 316.456 18.3091C319.278 19.5298 321.668 21.2153 323.625 23.3659C325.584 25.5165 327.081 27.9867 328.118 30.7768C329.154 33.5086 329.672 36.473 329.672 39.6697C329.672 40.4835 329.615 41.3263 329.499 42.1982C329.442 43.07 329.298 43.8256 329.068 44.4649H292.788V35.7464H322.675L317.32 39.8441C317.838 37.1705 317.694 34.7874 316.888 32.6949C316.14 30.6023 314.873 28.9459 313.087 27.7252C311.36 26.5046 309.257 25.8943 306.782 25.8943C304.42 25.8943 302.319 26.5046 300.476 27.7252C298.633 28.8877 297.222 30.6315 296.244 32.9564C295.322 35.2232 294.976 37.9841 295.206 41.239C294.976 44.1453 295.351 46.7319 296.329 48.9987C297.366 51.2074 298.863 52.922 300.822 54.1427C302.837 55.3633 305.14 55.9736 307.732 55.9736C310.323 55.9736 312.511 55.4214 314.297 54.317C316.14 53.2127 317.578 51.7306 318.615 49.8706L327.772 54.4042C326.851 56.6711 325.411 58.6764 323.452 60.4201C321.495 62.1638 319.163 63.5297 316.456 64.5179C313.807 65.506 310.87 66 307.646 66Z" fill="#0A0A0A"/>
  <path d="M335.831 64.9537V0H362.868C366.727 0 370.038 0.697492 372.802 2.09247C375.624 3.48745 377.783 5.46368 379.28 8.02114C380.836 10.5205 381.613 13.5139 381.613 17.0014C381.613 20.1981 380.778 23.1044 379.108 25.72C377.495 28.2774 375.105 30.2827 371.938 31.7358L371.852 28.5099C374.616 29.5562 376.891 30.9511 378.676 32.6949C380.519 34.3804 381.9 36.3567 382.822 38.6236C383.743 40.8322 384.204 43.1863 384.204 45.6856C384.204 51.6724 382.304 56.3804 378.503 59.8098C374.702 63.2391 369.519 64.9537 362.955 64.9537H335.831ZM344.296 57.1071H363.3C367.044 57.1071 370.038 56.0898 372.284 54.0555C374.529 52.0211 375.652 49.2603 375.652 45.7727C375.652 42.2853 374.529 39.5244 372.284 37.4901C370.038 35.3977 367.044 34.3514 363.3 34.3514H344.296V57.1071ZM344.296 26.6789H362.695C365.805 26.6789 368.311 25.7781 370.211 23.9762C372.111 22.1162 373.061 19.7623 373.061 16.9142C373.061 13.9498 372.111 11.683 370.211 10.1136C368.311 8.54426 365.805 7.75958 362.695 7.75958H344.296V26.6789Z" fill="#0A0A0A"/>
  <path d="M389.437 64.9537V8.85376H396.265V64.9537H389.437Z" fill="#0A0A0A"/>
  <path d="M421.339 65.8431C417.52 65.8431 414.069 64.9537 410.986 63.1752C407.902 61.3471 405.455 58.8522 403.643 55.6902C401.833 52.5283 400.926 48.9464 400.926 44.9445C400.926 40.9427 401.808 37.3855 403.57 34.2729C405.382 31.1604 407.829 28.6901 410.912 26.8621C413.996 25.0341 417.471 24.1201 421.339 24.1201C425.156 24.1201 428.606 25.0341 431.691 26.8621C434.775 28.6407 437.197 31.0863 438.959 34.1988C440.771 37.3114 441.676 40.8932 441.676 44.9445C441.676 48.9958 440.746 52.6024 438.886 55.7643C437.026 58.8769 434.554 61.3471 431.47 63.1752C428.436 64.9537 425.059 65.8431 421.339 65.8431ZM421.339 59.1734C423.786 59.1734 425.988 58.5557 427.946 57.3206C429.953 56.0854 431.52 54.381 432.645 52.2071C433.82 50.0332 434.407 47.6124 434.407 44.9445C434.407 42.2272 433.82 39.831 432.645 37.756C431.52 35.6315 429.953 33.9518 427.946 32.7167C425.988 31.4321 423.786 30.7899 421.339 30.7899C418.842 30.7899 416.59 31.4321 414.583 32.7167C412.626 33.9518 411.059 35.6315 409.884 37.756C408.709 39.831 408.122 42.2272 408.122 44.9445C408.122 47.6124 408.709 50.0332 409.884 52.2071C411.059 54.381 412.626 56.0854 414.583 57.3206C416.59 58.5557 418.842 59.1734 421.339 59.1734Z" fill="#0A0A0A"/>
  <path d="M464.619 65.8431C460.752 65.8431 457.301 64.9291 454.266 63.1011C451.28 61.273 448.93 58.7781 447.218 55.6161C445.505 52.4542 444.648 48.8969 444.648 44.9445C444.648 40.9427 445.505 37.3855 447.218 34.2729C448.93 31.1604 451.28 28.6901 454.266 26.8621C457.301 25.0341 460.752 24.1201 464.619 24.1201C467.213 24.1201 469.636 24.5895 471.888 25.5282C474.14 26.4669 476.122 27.7267 477.835 29.3076C479.549 30.8886 480.796 32.7414 481.579 34.8658L475.485 37.8301C474.555 35.7551 473.136 34.0753 471.226 32.7908C469.318 31.4569 467.116 30.7899 464.619 30.7899C462.22 30.7899 460.042 31.4074 458.085 32.6425C456.176 33.8777 454.658 35.5575 453.532 37.6819C452.406 39.8064 451.844 42.252 451.844 45.0186C451.844 47.6865 452.406 50.1075 453.532 52.2812C454.658 54.4057 456.176 56.0854 458.085 57.3206C460.042 58.5557 462.22 59.1734 464.619 59.1734C467.116 59.1734 469.318 58.5311 471.226 57.2465C473.136 55.9126 474.555 54.1586 475.485 51.9848L481.579 55.0973C480.796 57.1725 479.549 59.0251 477.835 60.6555C476.122 62.2365 474.14 63.4964 471.888 64.4351C469.636 65.3738 467.213 65.8431 464.619 65.8431Z" fill="#0A0A0A"/>
  <path d="M486.184 64.9537V8.85376H493.013V47.316L490.222 46.649L511.221 25.0094H519.959L504.761 41.0908L520.986 64.9537H512.91L498.078 43.3142L502.337 43.0918L490.809 55.2456L493.013 50.2062V64.9537H486.184Z" fill="#0A0A0A"/>
  <path d="M119.356 64.7549L99.4614 44.8303L119.356 24.9057L139.251 44.8302L119.356 64.7549Z" fill="#0A0A0A"/>
  <path d="M49.7241 44.8303L69.6191 64.7548L114.383 19.9245L94.4879 0L49.7241 44.8303Z" fill="#0A0A0A"/>
  <path d="M44.7501 0L64.6451 19.9245L19.8813 64.7548L-0.0136719 44.8303L44.7501 0Z" fill="#0A0A0A"/>
  </g></g><defs><clipPath id="clip0"><rect width="521" height="66" fill="white"/></clipPath></defs>
</svg>